<?xml version="1.0" encoding="UTF-8" standalone="no"?>
<!-- Created with Inkscape (http://www.inkscape.org/) -->

<svg
   version="1.1"
   id="svg2"
   width="1706.6667"
   height="1066.6667"
   viewBox="0 0 1706.6667 1066.6667"
   sodipodi:docname="3.ai"
   xmlns:inkscape="http://www.inkscape.org/namespaces/inkscape"
   xmlns:sodipodi="http://sodipodi.sourceforge.net/DTD/sodipodi-0.dtd"
   xmlns="http://www.w3.org/2000/svg"
   xmlns:svg="http://www.w3.org/2000/svg">
  <defs
     id="defs6">
    <clipPath
       clipPathUnits="userSpaceOnUse"
       id="clipPath16">
      <path
         d="M 0,800 H 1280 V 0 H 0 Z"
         id="path14" />
    </clipPath>
  </defs>
  <sodipodi:namedview
     id="namedview4"
     pagecolor="#ffffff"
     bordercolor="#000000"
     borderopacity="0.25"
     inkscape:showpageshadow="2"
     inkscape:pageopacity="0.0"
     inkscape:pagecheckerboard="0"
     inkscape:deskcolor="#d1d1d1" />
  <g
     id="g8"
     inkscape:groupmode="layer"
     inkscape:label="3"
     transform="matrix(1.3333333,0,0,-1.3333333,0,1066.6667)">
    <g
       id="g10">
      <g
         id="g12"
         clip-path="url(#clipPath16)">
        <g
           id="g18"
           transform="translate(758.0032,482.0575)">
          <path
             d="m 0,0 c -7.265,2.207 -14.503,1.151 -21.227,-1.529 -15.023,-5.989 -29.921,-12.315 -44.68,-18.938 -30.071,-13.494 -77.557,-10.741 -77.557,-10.741 -0.018,-4.006 -0.022,-7.965 0.056,-11.915 0.543,-27.316 -9.618,-50.505 -27.387,-70.663 -1.193,-1.353 -4.426,-2.081 -6.226,-1.527 -9.046,2.783 -14.797,9.697 -16.556,18.382 -1.855,9.158 -1.795,18.79 -1.795,28.215 0.001,9.129 1.373,18.255 1.449,27.389 0.098,11.826 -4.516,22.034 -12.866,30.322 -7.234,7.18 -15.712,11.888 -26.424,10.926 -4.837,-0.434 -9.66,-4.135 -10.512,-8.266 -1.093,-5.297 0.923,-9.326 5.419,-12.129 1.483,-0.925 3.116,-1.639 4.74,-2.305 14.32,-5.868 18.377,-11.776 18.443,-27.295 0.017,-3.868 -0.333,-7.74 -0.564,-11.607 -0.495,-8.26 -2.125,-16.628 -1.324,-24.758 2.166,-21.978 9.158,-41.358 32.173,-50.35 1.285,-0.503 2.486,-3.175 2.45,-4.808 -0.43,-19.148 5.555,-36.439 15.204,-52.582 12.64,-21.145 25.653,-42.068 38.352,-63.178 3.178,-5.285 8.086,-4.377 12.636,-3.952 4.294,0.401 5.163,4.303 5.702,7.858 1.081,7.146 -2.501,12.79 -5.78,18.721 -9.894,17.899 -17.514,36.675 -16.163,57.607 0.73,11.321 3.732,21.993 13.809,29.528 17.698,13.234 27.317,32.302 35.703,52.009 3.62,8.508 3.825,17.605 3.118,26.396 -8.044,-3.146 -15.734,-6.154 -23.69,-9.265 -1.522,6.078 0.09,9.234 4.41,11.698 16.503,9.41 32.879,19.042 49.289,28.612 15.17,8.846 29.674,19.364 48.438,19.11 0.497,-0.007 0.999,0.317 1.498,0.488 4.768,1.637 8.005,4.695 7.868,9.975 C 7.877,-3.606 4.317,-1.311 0,0"
             style="fill:#000000;fill-opacity:1;fill-rule:nonzero;stroke:none"
             id="path20" />
        </g>
        <g
           id="g22"
           transform="translate(687.7817,397.457)">
          <path
             d="M 0,0 C 0,6.308 -0.132,12.287 0.102,18.251 0.155,19.575 1.205,21.22 2.296,22.09 20.257,36.413 45.659,29.753 54.76,6.301 56.853,0.908 54.577,-5.231 50.569,-7.244 46.103,-9.487 40.588,-7.606 36.842,-2.542 36.214,-1.695 35.677,-0.781 35.072,0.083 29.774,7.643 24.742,9.55 15.995,6.603 10.548,4.768 5.338,2.231 0,0"
             style="fill:#000000;fill-opacity:1;fill-rule:nonzero;stroke:none"
             id="path24" />
        </g>
        <g
           id="g26"
           transform="translate(635.7291,279.1103)">
          <path
             d="m 0,0 c -3.474,12.934 -2.85,25.829 2.318,38.41 0.901,2.195 2.438,4.311 4.167,5.951 6.232,5.907 12.662,11.605 19.044,17.352 0.715,0.645 1.605,1.096 2.788,1.888 C 30.758,50.342 26.166,39.013 20.267,28.557 14.595,18.504 11.408,6.513 0,0"
             style="fill:#000000;fill-opacity:1;fill-rule:nonzero;stroke:none"
             id="path28" />
        </g>
        <g
           id="g30"
           transform="translate(594.7521,263.3412)">
          <path
             d="m 0,0 c 4.358,-6.679 8.154,-12.493 11.941,-18.311 0.189,-0.29 0.532,-0.768 0.436,-0.912 -2.92,-4.364 -5.209,-9.486 -9.057,-12.788 -3.184,-2.733 -9.101,-0.064 -11.755,3.961 -3.095,4.697 -4.243,9.744 -1.055,14.781 C -6.733,-8.912 -3.503,-4.856 0,0"
             style="fill:#000000;fill-opacity:1;fill-rule:nonzero;stroke:none"
             id="path32" />
        </g>
        <g
           id="g34"
           transform="translate(595.1044,532.1472)">
          <path
             d="m 0,0 c 0.911,-6.608 -1.33,-9.018 -7.102,-8.038 -5.098,0.865 -10.384,1.006 -15.283,2.477 -1.858,0.558 -4.166,3.235 -4.262,6.039 -0.096,2.803 4.171,3.666 6.01,3.446 C -13.75,3.098 -6.967,1.4 0,0"
             style="fill:#000000;fill-opacity:1;fill-rule:nonzero;stroke:none"
             id="path36" />
        </g>
        <g
           id="g38"
           transform="translate(570.0438,503.683)">
          <path
             d="m 0,0 c -5.041,-1.089 -6.16,6.433 0.519,8.077 6.837,2.025 13.803,3.705 20.833,4.875 0.923,0.154 2.939,-3.03 3.44,-4.934 C 25.041,7.073 23.201,4.693 21.958,4.39 15.652,2.853 9.233,1.784 0,0"
             style="fill:#000000;fill-opacity:1;fill-rule:nonzero;stroke:none"
             id="path40" />
        </g>
        <g
           id="g42"
           transform="translate(696.07,532.1472)">
          <path
             d="m 0,0 c -0.911,-6.608 1.33,-9.018 7.102,-8.038 5.098,0.865 10.384,1.006 15.283,2.477 1.858,0.558 4.166,3.235 4.262,6.039 0.096,2.803 -4.171,3.666 -6.01,3.446 C 13.75,3.098 6.967,1.4 0,0"
             style="fill:#000000;fill-opacity:1;fill-rule:nonzero;stroke:none"
             id="path44" />
        </g>
        <g
           id="g46"
           transform="translate(721.1306,503.683)">
          <path
             d="m 0,0 c 5.041,-1.089 6.16,6.433 -0.519,8.077 -6.837,2.025 -13.803,3.705 -20.833,4.875 -0.923,0.154 -2.939,-3.03 -3.44,-4.934 -0.249,-0.945 1.591,-3.325 2.834,-3.628 C -15.653,2.853 -9.233,1.784 0,0"
             style="fill:#000000;fill-opacity:1;fill-rule:nonzero;stroke:none"
             id="path48" />
        </g>
        <g
           id="g50"
           transform="translate(666.5,497)">
          <path
             d="m 0,0 c 0,-3.406 -2.761,-6.167 -6.167,-6.167 -3.405,0 -6.166,2.761 -6.166,6.167 0,3.406 2.761,6.167 6.166,6.167 C -2.761,6.167 0,3.406 0,0 m -29.5,0 c 0,-3.406 -2.761,-6.167 -6.167,-6.167 -3.405,0 -6.166,2.761 -6.166,6.167 0,3.406 2.761,6.167 6.166,6.167 3.406,0 6.167,-2.761 6.167,-6.167 m 40.75,8.698 c -3.023,5.66 -3.333,23.59 -3.63,26.92 -0.418,4.702 -2.676,5.964 -6.666,3.172 -3.998,-2.798 -7.416,-6.411 -11.243,-9.474 -1.69,-1.354 -3.66,-2.873 -5.682,-3.195 -1.961,-0.313 -4.036,-0.762 -6.086,-1.078 -2.049,0.316 -4.124,0.765 -6.085,1.078 -2.022,0.322 -3.992,1.841 -5.683,3.195 -3.826,3.063 -7.244,6.676 -11.242,9.474 -3.99,2.792 -6.248,1.53 -6.667,-3.172 -0.296,-3.33 -0.606,-21.26 -3.629,-26.92 -9.164,-17.155 4.548,-39.976 24.985,-43.781 2.834,-0.528 5.431,-0.641 8.538,-0.591 2.33,-0.05 5.488,0.114 8.322,0.642 20.436,3.806 33.932,26.575 24.768,43.73"
             style="fill:#000000;fill-opacity:1;fill-rule:nonzero;stroke:none"
             id="path52" />
        </g>
        <g
           id="g54"
           transform="translate(640,573.3149)">
          <path
             d="m 0,0 c -95.566,0 -173.315,-77.749 -173.315,-173.315 0,-95.566 77.749,-173.315 173.315,-173.315 95.566,0 173.315,77.749 173.315,173.315 C 173.315,-77.749 95.566,0 0,0 m 0,-356.63 c -101.08,0 -183.315,82.235 -183.315,183.315 C -183.315,-72.235 -101.08,10 0,10 101.08,10 183.315,-72.235 183.315,-173.315 183.315,-274.395 101.08,-356.63 0,-356.63"
             style="fill:#000000;fill-opacity:1;fill-rule:nonzero;stroke:none"
             id="path56" />
        </g>
        <g
           id="g58"
           transform="translate(450.3278,290.5887)">
          <path
             d="m 0,0 c -18.656,32.214 -29.359,69.583 -29.359,109.411 0,4.726 0.168,9.413 0.465,14.066 -0.926,-0.053 -1.857,-0.085 -2.795,-0.085 -1.679,0 -3.341,0.088 -4.983,0.255 -0.29,-4.72 -0.454,-9.465 -0.454,-14.236 0,-39.896 10.246,-78.212 29.469,-111.966 C -5.195,-1.501 -2.633,-0.651 0,0"
             style="fill:#000000;fill-opacity:1;fill-rule:nonzero;stroke:none"
             id="path60" />
        </g>
        <g
           id="g62"
           transform="translate(826.0677,284.5818)">
          <path
             d="m 0,0 c 2.792,-0.381 5.522,-0.984 8.16,-1.815 21.219,35.01 32.57,75.246 32.57,117.233 0,5.389 -0.196,10.748 -0.566,16.072 -2.357,-0.348 -4.76,-0.538 -7.201,-0.538 -0.187,0 -0.372,0.013 -0.559,0.015 0.363,-5.138 0.559,-10.321 0.559,-15.549 C 32.963,73.089 20.88,33.536 0,0"
             style="fill:#000000;fill-opacity:1;fill-rule:nonzero;stroke:none"
             id="path64" />
        </g>
        <g
           id="g66"
           transform="translate(848.0767,275.9083)">
          <path
             d="m 0,0 c 2.187,-1.533 4.249,-3.234 6.17,-5.082 23.359,38.583 35.852,82.915 35.852,129.174 0,8.568 -0.435,17.069 -1.28,25.481 -2.326,-1.725 -4.802,-3.252 -7.399,-4.566 0.592,-6.896 0.912,-13.868 0.912,-20.915 C 34.255,78.77 21.743,36.32 0,0"
             style="fill:#000000;fill-opacity:1;fill-rule:nonzero;stroke:none"
             id="path68" />
        </g>
        <g
           id="g70"
           transform="translate(429.5991,279.8959)">
          <path
             d="m 0,0 c -20.302,35.425 -31.931,76.429 -31.931,120.104 0,6.175 0.235,12.296 0.691,18.357 -2.602,1.168 -5.094,2.547 -7.45,4.123 -0.658,-7.432 -1.008,-14.929 -1.008,-22.48 0,-44.955 11.803,-88.087 33.906,-125.894 C -4.017,-3.711 -2.08,-1.774 0,0"
             style="fill:#000000;fill-opacity:1;fill-rule:nonzero;stroke:none"
             id="path72" />
        </g>
        <g
           id="g74"
           transform="translate(453.3462,464.5537)">
          <path
             d="m 0,0 c -0.88,-3.31 -2.698,-5.715 -5.459,-7.215 -2.761,-1.502 -6.02,-1.752 -9.776,-0.755 -2.623,0.697 -5.401,2.074 -8.333,4.129 -7.524,5.319 -13.82,8.651 -18.889,9.997 -2.414,0.642 -4.264,0.798 -5.548,0.469 -1.284,-0.33 -2.029,-0.882 -2.235,-1.657 -0.246,-0.924 0.191,-1.958 1.307,-3.099 1.117,-1.143 2.867,-2.031 5.253,-2.664 2.444,-0.65 5.524,-0.83 9.24,-0.541 0.427,0.046 0.804,0.026 1.131,-0.061 1.045,-0.277 1.679,-1.012 1.904,-2.205 0.227,-1.193 0.173,-2.415 -0.16,-3.668 -0.301,-1.133 -0.8,-2.109 -1.496,-2.929 -0.697,-0.821 -1.492,-1.112 -2.387,-0.875 -0.208,0.055 -0.424,0.145 -0.647,0.268 -2.731,1.492 -5.216,2.535 -7.451,3.128 -2.891,0.768 -5.255,0.942 -7.091,0.52 -1.836,-0.422 -2.868,-1.066 -3.098,-1.93 -0.174,-0.655 0.151,-1.355 0.974,-2.101 0.823,-0.746 2.248,-1.388 4.276,-1.926 5.038,-1.338 12.342,-1.54 21.91,-0.602 3.565,0.328 6.676,0.14 9.328,-0.564 3.817,-1.013 6.588,-2.867 8.313,-5.559 1.726,-2.693 2.155,-5.68 1.283,-8.958 -0.728,-2.744 -1.988,-4.962 -3.778,-6.657 -1.791,-1.694 -3.908,-2.815 -6.351,-3.362 -2.444,-0.548 -5.008,-0.466 -7.69,0.247 -2.743,0.728 -5.465,2.138 -8.165,4.228 -6.891,5.532 -13.647,9.179 -20.265,10.936 -3.906,1.038 -7.81,1.293 -11.717,0.767 -1.432,-0.226 -2.611,-0.215 -3.535,0.03 -1.341,0.356 -2.26,1.103 -2.756,2.24 -0.495,1.137 -0.696,2.483 -0.603,4.038 0.095,1.555 0.355,3.137 0.783,4.746 0.38,1.431 1.098,2.629 2.151,3.594 1.472,1.333 3.805,3.027 6.999,5.082 0.96,0.607 1.679,1.094 2.16,1.462 0.48,0.366 0.769,0.729 0.863,1.087 0.088,0.327 -0.018,0.77 -0.317,1.328 -0.298,0.558 -0.697,1.222 -1.194,1.994 -0.659,1.004 -1.337,2.174 -2.036,3.508 -0.698,1.335 -1.214,2.788 -1.546,4.36 -0.332,1.573 -0.265,3.238 0.202,4.997 0.428,1.611 0.987,3.114 1.676,4.51 0.691,1.396 1.534,2.465 2.528,3.206 0.995,0.741 2.163,0.933 3.504,0.578 0.925,-0.246 1.953,-0.823 3.084,-1.729 2.753,-2.137 5.842,-3.659 9.27,-4.57 3.817,-1.012 7.848,-1.454 12.096,-1.322 4.248,0.132 8.405,0.521 12.469,1.164 3.411,0.465 6.474,0.338 9.186,-0.382 2.683,-0.714 4.949,-1.913 6.8,-3.601 1.849,-1.688 3.13,-3.712 3.844,-6.072 C 0.724,5.249 0.721,2.712 0,0"
             style="fill:#000000;fill-opacity:1;fill-rule:nonzero;stroke:none"
             id="path76" />
        </g>
        <g
           id="g78"
           transform="translate(467.1519,494.5288)">
          <path
             d="m 0,0 c -1.065,-1.949 -2.579,-3.574 -4.538,-4.875 -1.96,-1.301 -4.172,-2.034 -6.635,-2.199 -2.463,-0.164 -5.007,0.471 -7.633,1.908 -2.489,1.362 -4.954,3.571 -7.395,6.629 -3.903,4.948 -7.249,8.184 -10.036,9.708 -1.543,0.844 -2.989,1.301 -4.34,1.372 -1.349,0.07 -2.681,-0.098 -3.994,-0.504 -1.312,-0.409 -2.663,-0.917 -4.053,-1.528 -1.669,-0.74 -3.513,-1.411 -5.53,-2.011 -2.016,-0.604 -4.336,-0.89 -6.958,-0.862 -1.501,0.083 -2.671,0.354 -3.511,0.813 -1.244,0.68 -1.973,1.677 -2.187,2.989 -0.214,1.312 -0.088,2.765 0.378,4.355 0.467,1.59 1.121,3.157 1.964,4.7 0.681,1.245 1.546,2.538 2.597,3.88 1.051,1.341 2.166,2.384 3.346,3.127 1.179,0.744 2.284,0.834 3.312,0.271 1.838,-1.076 3.345,-2.111 4.523,-3.106 1.004,-0.866 2.074,-1.609 3.211,-2.231 2.381,-1.303 4.318,-2.002 5.813,-2.098 1.494,-0.098 2.426,0.193 2.796,0.87 0.37,0.675 0.113,1.617 -0.775,2.823 -0.887,1.206 -2.522,2.461 -4.903,3.763 -0.866,0.474 -2.158,1.004 -3.876,1.593 -1.922,0.664 -3.464,1.314 -4.629,1.952 -1.081,0.591 -1.639,1.582 -1.67,2.97 -0.031,1.388 0.227,2.891 0.777,4.506 0.55,1.616 1.165,3.045 1.845,4.291 0.845,1.542 1.814,2.944 2.91,4.21 1.096,1.263 2.254,2.16 3.474,2.688 1.22,0.527 2.453,0.451 3.697,-0.23 0.894,-0.489 1.753,-1.327 2.579,-2.518 1.202,-1.853 2.093,-3.694 2.675,-5.523 0.581,-1.831 1.047,-3.615 1.396,-5.353 0.329,-1.586 0.722,-3.102 1.179,-4.547 0.457,-1.446 1.126,-2.778 2.006,-3.998 0.88,-1.22 2.159,-2.288 3.836,-3.205 2.598,-1.422 6.523,-2.408 11.776,-2.961 4.345,-0.478 7.884,-1.464 10.616,-2.959 2.761,-1.51 4.736,-3.364 5.925,-5.562 C 1.156,10.951 1.722,8.69 1.664,6.368 1.606,4.042 1.05,1.921 0,0"
             style="fill:#000000;fill-opacity:1;fill-rule:nonzero;stroke:none"
             id="path80" />
        </g>
        <g
           id="g82"
           transform="translate(505.8169,544.1802)">
          <path
             d="m 0,0 c -2.912,-2.711 -6.044,-4.396 -9.396,-5.049 -3.352,-0.655 -6.751,-0.502 -10.197,0.463 -3.448,0.961 -6.806,2.545 -10.078,4.746 -3.271,2.201 -6.294,4.791 -9.068,7.772 -4.414,4.741 -7.6,9.193 -9.557,13.355 -1.957,4.161 -2.989,7.985 -3.093,11.47 -0.105,3.484 0.465,6.586 1.707,9.303 1.243,2.715 2.847,4.989 4.811,6.817 2.032,1.891 4.272,3.197 6.721,3.917 2.447,0.72 4.783,0.86 7.004,0.421 2.221,-0.44 4.036,-1.416 5.444,-2.928 0.883,-0.948 1.393,-1.927 1.533,-2.936 0.137,-1.008 0.015,-1.976 -0.367,-2.9 -0.381,-0.925 -0.923,-1.714 -1.623,-2.364 -0.948,-0.884 -2.047,-1.412 -3.297,-1.586 -1.251,-0.173 -2.359,0.26 -3.326,1.298 l -0.378,0.406 c -0.778,0.836 -1.621,1.389 -2.528,1.663 -0.906,0.271 -1.856,-0.055 -2.85,-0.979 -1.494,-1.518 -2.255,-3.292 -2.285,-5.32 -0.029,-2.03 0.485,-4.131 1.543,-6.309 1.056,-2.176 2.416,-4.156 4.076,-5.94 2.333,-2.506 4.505,-4.15 6.519,-4.931 2.012,-0.781 3.822,-0.982 5.428,-0.602 1.608,0.379 2.941,1.061 4.003,2.049 1.264,1.177 2.097,2.523 2.501,4.036 0.403,1.513 0.258,2.643 -0.435,3.388 -0.463,0.496 -1.141,0.772 -2.034,0.825 -0.893,0.054 -1.869,-0.414 -2.931,-1.4 -0.677,-0.632 -1.342,-1.547 -1.996,-2.745 -0.118,-0.237 -0.245,-0.417 -0.38,-0.543 -0.61,-0.568 -1.391,-0.622 -2.346,-0.161 -0.955,0.458 -1.842,1.129 -2.662,2.01 -0.798,0.858 -1.4,1.763 -1.802,2.716 -0.403,0.953 -0.344,1.67 0.175,2.154 l 0.169,0.159 c 1.275,0.848 2.476,1.799 3.605,2.849 1.106,1.03 1.894,1.858 2.365,2.485 0.469,0.627 1.19,1.393 2.16,2.297 0.948,0.883 2.127,1.653 3.537,2.313 1.41,0.658 3.003,0.837 4.782,0.532 1.779,-0.304 3.703,-1.431 5.773,-3.382 1.33,-1.248 2.991,-2.873 4.981,-4.875 C -1.8,32.49 -0.248,30.891 0.866,29.695 3.766,26.58 5.728,23.327 6.753,19.941 7.778,16.554 7.755,13.172 6.686,9.795 5.615,6.417 3.387,3.152 0,0"
             style="fill:#000000;fill-opacity:1;fill-rule:nonzero;stroke:none"
             id="path84" />
        </g>
        <g
           id="g86"
           transform="translate(514.1113,605.0195)">
          <path
             d="m 0,0 c 0.508,0.292 0.864,1.778 1.069,4.456 0.306,4.052 -0.024,7.01 -0.988,8.876 -0.534,0.867 -1.362,1.397 -2.486,1.588 -1.123,0.19 -2.14,0.024 -3.049,-0.498 C -6.364,13.899 -6.92,13.073 -7.125,11.943 -7.328,10.812 -6.908,9.336 -5.864,7.518 -4.482,5.11 -3.286,3.182 -2.277,1.735 -1.268,0.287 -0.509,-0.292 0,0 m 38.871,-27.832 c -1.419,-0.814 -2.984,-1.216 -4.698,-1.203 -1.714,0.011 -3.382,0.484 -5.005,1.421 -1.622,0.935 -3.009,2.407 -4.161,4.412 -0.768,1.338 -1.421,2.644 -1.957,3.919 -0.536,1.275 -1.134,2.487 -1.795,3.637 -2.396,4.174 -4.972,7.39 -7.728,9.649 -2.694,2.152 -4.469,2.983 -5.325,2.491 -0.455,-0.261 -0.577,-0.884 -0.369,-1.866 0.209,-0.983 0.682,-2.115 1.419,-3.4 1.459,-2.542 3.342,-4.768 5.65,-6.68 2.978,-2.524 5.22,-5.095 6.724,-7.716 1.89,-3.29 2.581,-6.415 2.075,-9.374 -0.507,-2.958 -2.192,-5.259 -5.053,-6.903 -2.435,-1.397 -4.891,-2.06 -7.368,-1.989 -2.477,0.071 -4.774,0.788 -6.89,2.151 -2.118,1.365 -3.867,3.25 -5.249,5.657 -1.383,2.408 -2.29,5.319 -2.722,8.735 -0.734,7.225 -2.791,13.781 -6.17,19.666 -2.396,4.173 -5.488,7.698 -9.274,10.575 -1.371,1.026 -2.318,1.994 -2.841,2.903 -0.63,1.097 -0.776,2.142 -0.439,3.135 0.336,0.994 1.01,1.941 2.022,2.842 1.012,0.902 2.2,1.745 3.564,2.528 2.14,1.228 4.634,2.554 7.482,3.975 C 2.312,26.512 10.124,26.07 14.197,19.411 14.95,18.1 15.344,16.824 15.382,15.583 15.419,14.34 15.224,13.1 14.799,11.859 14.373,10.619 13.831,9.364 13.171,8.097 12.785,7.342 12.516,6.742 12.363,6.299 12.208,5.855 12.208,5.499 12.362,5.231 c 0.276,-0.481 1.164,-0.79 2.665,-0.924 2.66,-0.358 5.205,-0.889 7.636,-1.591 2.431,-0.703 4.947,-1.756 7.55,-3.161 2.603,-1.404 5.196,-3.179 7.779,-5.323 2.583,-2.145 4.589,-4.461 6.018,-6.948 0.967,-1.685 1.523,-3.412 1.666,-5.179 0.143,-1.768 -0.306,-3.494 -1.349,-5.177 -1.043,-1.684 -2.862,-3.27 -5.456,-4.76"
             style="fill:#000000;fill-opacity:1;fill-rule:nonzero;stroke:none"
             id="path88" />
        </g>
        <g
           id="g90"
           transform="translate(573.3799,622.5029)">
          <path
             d="m 0,0 c 1.034,0.31 1.937,0.924 2.708,1.848 0.771,0.921 1.276,2.085 1.516,3.494 0.239,1.407 0.094,2.998 -0.435,4.771 -0.212,0.709 -0.496,1.445 -0.852,2.208 -1.712,3.576 -3.421,6.093 -5.126,7.547 -1.707,1.454 -3.195,1.992 -4.465,1.613 -1.568,-0.467 -2.569,-2.127 -3.005,-4.977 -0.437,-2.851 -0.152,-5.961 0.854,-9.33 C -8.196,5.135 -7.396,3.53 -6.403,2.362 -5.411,1.194 -4.347,0.433 -3.211,0.081 -2.076,-0.273 -1.005,-0.3 0,0 m 9.776,-33.875 c -4.139,-1.236 -8.12,-1.217 -11.944,0.055 -3.825,1.272 -7.188,3.511 -10.093,6.717 -2.905,3.205 -5.027,7.053 -6.368,11.546 l -0.636,2.129 c -0.811,2.718 -1.45,5.796 -1.911,9.231 -0.462,3.435 -0.649,6.945 -0.56,10.528 0.089,3.584 0.572,6.98 1.45,10.187 0.877,3.208 2.219,5.99 4.026,8.349 1.807,2.357 4.202,3.982 7.188,4.874 2.955,0.882 5.809,0.865 8.562,-0.052 2.752,-0.917 5.34,-2.438 7.76,-4.564 2.422,-2.126 4.637,-4.611 6.645,-7.456 2.008,-2.845 3.744,-5.804 5.209,-8.875 1.464,-3.072 2.598,-5.952 3.401,-8.642 l 0.643,-2.319 c 0.938,-3.358 1.359,-6.708 1.263,-10.052 -0.096,-3.344 -0.698,-6.478 -1.805,-9.399 -1.107,-2.924 -2.732,-5.46 -4.874,-7.612 -2.142,-2.153 -4.794,-3.701 -7.956,-4.645"
             style="fill:#000000;fill-opacity:1;fill-rule:nonzero;stroke:none"
             id="path92" />
        </g>
        <g
           id="g94"
           transform="translate(625.646,631.7812)">
          <path
             d="m 0,0 c 1.078,0.065 2.096,0.459 3.057,1.182 0.96,0.723 1.717,1.742 2.271,3.059 0.553,1.315 0.774,2.897 0.661,4.744 -0.045,0.74 -0.155,1.521 -0.328,2.345 -0.854,3.872 -1.946,6.711 -3.276,8.515 -1.331,1.804 -2.658,2.666 -3.981,2.585 -1.633,-0.099 -2.986,-1.487 -4.058,-4.163 -1.074,-2.677 -1.503,-5.771 -1.29,-9.28 0.129,-2.124 0.545,-3.869 1.246,-5.232 0.7,-1.364 1.564,-2.346 2.59,-2.948 C -2.083,0.204 -1.047,-0.063 0,0 m 1.818,-35.212 c -4.311,-0.262 -8.183,0.661 -11.618,2.77 -3.436,2.109 -6.202,5.053 -8.303,8.835 -2.099,3.781 -3.291,8.012 -3.576,12.692 l -0.135,2.217 c -0.172,2.833 -0.093,5.973 0.238,9.425 0.331,3.449 0.947,6.91 1.848,10.379 0.902,3.469 2.145,6.666 3.728,9.591 1.583,2.923 3.523,5.328 5.819,7.214 2.296,1.885 4.998,2.923 8.108,3.112 3.078,0.188 5.854,-0.478 8.326,-1.997 2.472,-1.517 4.645,-3.587 6.52,-6.209 1.874,-2.62 3.466,-5.544 4.775,-8.771 1.309,-3.228 2.327,-6.502 3.054,-9.826 0.728,-3.325 1.178,-6.388 1.347,-9.189 l 0.101,-2.405 c 0.15,-3.483 -0.203,-6.842 -1.055,-10.076 -0.856,-3.236 -2.154,-6.15 -3.896,-8.743 -1.743,-2.594 -3.902,-4.696 -6.477,-6.305 -2.575,-1.609 -5.51,-2.514 -8.804,-2.714"
             style="fill:#000000;fill-opacity:1;fill-rule:nonzero;stroke:none"
             id="path96" />
        </g>
        <g
           id="g98"
           transform="translate(668.1172,594.9395)">
          <path
             d="m 0,0 c -3.205,0.458 -5.698,1.438 -7.478,2.94 -1.779,1.502 -2.973,3.332 -3.583,5.493 -0.61,2.159 -0.744,4.429 -0.402,6.811 0.337,2.35 1.064,4.709 2.182,7.072 0.685,1.522 1.146,3.107 1.383,4.756 0.402,2.81 0.315,5.791 -0.261,8.943 -0.577,3.152 -1.396,6.299 -2.457,9.443 -1.061,3.144 -2.149,6.15 -3.264,9.021 -0.77,2.011 -1.466,3.903 -2.085,5.674 -0.448,1.434 -0.605,2.627 -0.469,3.574 0.201,1.403 0.879,2.436 2.033,3.097 1.154,0.66 2.557,1.051 4.211,1.172 1.654,0.121 3.351,0.057 5.091,-0.192 1.404,-0.201 2.917,-0.566 4.54,-1.095 C 1.063,66.18 2.43,65.494 3.54,64.649 4.649,63.804 5.119,62.787 4.949,61.596 4.664,59.611 4.265,57.909 3.749,56.486 3.281,55.182 2.949,53.843 2.753,52.469 2.219,48.744 2.027,45.67 2.179,43.25 2.33,40.828 2.672,39.027 3.204,37.845 c 0.531,-1.183 1.103,-1.818 1.714,-1.906 0.671,-0.095 1.434,0.38 2.284,1.426 0.851,1.048 1.688,2.757 2.511,5.132 0.823,2.375 1.509,5.471 2.056,9.288 0.144,1.008 0.199,2.262 0.165,3.762 -0.091,1.759 -0.024,3.416 0.199,4.973 0.175,1.221 0.907,2.09 2.196,2.606 1.29,0.517 2.771,0.796 4.443,0.836 1.673,0.04 3.181,-0.035 4.525,-0.227 1.77,-0.254 3.427,-0.663 4.967,-1.226 1.538,-0.564 2.761,-1.324 3.669,-2.28 0.907,-0.955 1.261,-2.12 1.065,-3.494 C 32.854,55.727 32.349,54.6 31.485,53.353 30.354,51.769 29.102,50.096 27.727,48.329 25.972,46.088 24.225,43.736 22.485,41.275 20.746,38.813 19.224,36.288 17.918,33.702 16.612,31.116 15.773,28.525 15.402,25.931 15.126,24.006 15.18,22.098 15.563,20.205 16.238,17.085 16.38,14.167 15.991,11.45 15.632,8.946 14.804,6.75 13.505,4.865 12.206,2.978 10.439,1.58 8.206,0.67 5.972,-0.241 3.236,-0.465 0,0"
             style="fill:#000000;fill-opacity:1;fill-rule:nonzero;stroke:none"
             id="path100" />
        </g>
        <g
           id="g102"
           transform="translate(713.6172,582.7207)">
          <path
             d="m 0,0 c -2.061,0.83 -3.852,2.14 -5.375,3.933 -1.523,1.793 -2.512,3.902 -2.965,6.329 -0.453,2.426 -0.122,5.028 0.996,7.803 1.058,2.633 2.963,5.342 5.712,8.126 4.452,4.459 7.273,8.163 8.458,11.11 0.657,1.631 0.94,3.121 0.852,4.47 -0.09,1.35 -0.413,2.651 -0.972,3.908 -0.56,1.254 -1.224,2.537 -1.995,3.843 -0.93,1.572 -1.814,3.324 -2.648,5.256 -0.836,1.932 -1.394,4.201 -1.675,6.808 -0.095,1.5 0.036,2.694 0.393,3.582 0.53,1.316 1.434,2.157 2.712,2.524 1.278,0.367 2.735,0.412 4.369,0.138 1.635,-0.276 3.268,-0.74 4.899,-1.396 1.316,-0.53 2.702,-1.238 4.159,-2.122 1.455,-0.885 2.622,-1.872 3.5,-2.955 0.877,-1.085 1.096,-2.17 0.659,-3.257 -0.852,-1.952 -1.703,-3.572 -2.553,-4.859 -0.741,-1.098 -1.353,-2.248 -1.837,-3.45 -1.013,-2.518 -1.48,-4.524 -1.399,-6.02 0.079,-1.495 0.478,-2.386 1.193,-2.674 0.715,-0.288 1.619,0.079 2.713,1.103 1.093,1.023 2.146,2.793 3.159,5.312 0.369,0.916 0.743,2.261 1.125,4.035 0.433,1.987 0.898,3.596 1.393,4.826 0.46,1.145 1.378,1.815 2.753,2.01 1.376,0.195 2.897,0.115 4.566,-0.241 1.669,-0.355 3.162,-0.798 4.478,-1.327 1.632,-0.657 3.139,-1.455 4.524,-2.395 1.384,-0.938 2.41,-1.982 3.077,-3.131 0.668,-1.151 0.739,-2.385 0.208,-3.701 C 44.1,46.645 43.367,45.691 42.283,44.731 40.585,43.32 38.86,42.219 37.113,41.425 35.364,40.633 33.646,39.96 31.963,39.407 30.426,38.895 28.967,38.327 27.586,37.703 26.204,37.078 24.959,36.257 23.852,35.24 22.744,34.222 21.834,32.826 21.12,31.052 20.015,28.305 19.497,24.291 19.567,19.009 19.604,14.638 19.041,11.008 17.879,8.118 16.704,5.199 15.096,3.02 13.055,1.581 11.012,0.141 8.834,-0.687 6.52,-0.902 4.205,-1.119 2.031,-0.817 0,0"
             style="fill:#000000;fill-opacity:1;fill-rule:nonzero;stroke:none"
             id="path104" />
        </g>
        <g
           id="g106"
           transform="translate(767.4326,550.2168)">
          <path
             d="m 0,0 c -2.989,2.532 -5.017,5.401 -6.081,8.606 -1.065,3.206 -1.354,6.552 -0.865,10.04 0.488,3.487 1.595,6.956 3.324,10.403 1.726,3.448 3.887,6.701 6.477,9.763 2.812,3.318 5.972,6.25 9.482,8.795 3.51,2.545 7.125,4.465 10.849,5.757 3.722,1.295 7.366,1.767 10.929,1.416 3.564,-0.35 6.805,-1.761 9.724,-4.233 2.189,-1.855 3.789,-4.068 4.802,-6.644 1.011,-2.576 1.297,-5.281 0.853,-8.12 -0.443,-2.838 -1.77,-5.563 -3.983,-8.177 -0.898,-1.059 -1.848,-1.739 -2.852,-2.041 -1.003,-0.303 -1.974,-0.328 -2.914,-0.079 -0.94,0.251 -1.776,0.686 -2.506,1.304 -0.988,0.836 -1.673,1.902 -2.052,3.194 -0.382,1.292 -0.143,2.445 0.713,3.457 0.32,0.376 0.606,0.68 0.861,0.909 0.255,0.228 0.491,0.473 0.711,0.732 1.236,1.459 1.868,3.006 1.897,4.638 0.028,1.633 -0.429,2.848 -1.369,3.645 -1.748,1.278 -3.959,1.221 -6.634,-0.171 -2.676,-1.393 -5.119,-3.396 -7.332,-6.009 -1.455,-1.718 -2.622,-3.478 -3.501,-5.28 -0.88,-1.802 -1.319,-3.491 -1.32,-5.066 -0.001,-1.577 0.599,-2.873 1.8,-3.89 1.482,-1.256 3.183,-2.04 5.102,-2.351 1.918,-0.312 3.744,-0.089 5.477,0.668 0.95,0.407 1.841,0.563 2.669,0.467 0.829,-0.095 1.549,-0.402 2.161,-0.92 0.848,-0.718 1.373,-1.78 1.577,-3.185 0.204,-1.406 -0.1,-3.019 -0.912,-4.836 C 35.857,10.194 34.296,7.778 32.402,5.543 30.369,3.142 28.05,1.083 25.445,-0.632 22.841,-2.348 20.084,-3.549 17.176,-4.239 14.267,-4.928 11.349,-4.964 8.419,-4.341 5.49,-3.72 2.684,-2.272 0,0"
             style="fill:#000000;fill-opacity:1;fill-rule:nonzero;stroke:none"
             id="path108" />
        </g>
        <g
           id="g110"
           transform="translate(836.8242,544.6338)">
          <path
             d="m 0,0 c 0.799,-1.098 1.707,-2.03 2.724,-2.796 1.015,-0.768 1.81,-0.943 2.384,-0.525 1.024,0.899 1.499,1.95 1.423,3.154 C 6.456,1.037 6.091,2.088 5.437,2.986 4.657,4.059 3.636,4.832 2.375,5.306 1.113,5.78 -0.054,5.627 -1.125,4.847 -2.136,4.033 -1.761,2.418 0,0 m -30.817,-38.01 c -1.125,1.546 -1.789,3.296 -1.99,5.247 -0.201,1.953 0.294,4.011 1.485,6.176 1.19,2.165 3.281,4.336 6.273,6.515 3.541,2.577 8.562,5.089 15.063,7.533 1.475,0.541 2.675,1.147 3.597,1.818 1.546,1.127 2.441,2.322 2.684,3.586 0.243,1.264 0.056,2.322 -0.562,3.169 -0.635,0.872 -1.62,1.386 -2.954,1.541 -1.334,0.154 -2.785,-0.34 -4.355,-1.484 -0.899,-0.654 -1.803,-1.561 -2.714,-2.72 -4.321,-5.436 -8.253,-9.444 -11.794,-12.022 -2.991,-2.18 -5.7,-3.503 -8.125,-3.972 -2.426,-0.468 -4.541,-0.301 -6.347,0.502 -1.806,0.803 -3.271,1.977 -4.397,3.523 -1.543,2.12 -2.489,4.388 -2.837,6.806 -0.35,2.416 -0.088,4.744 0.783,6.98 0.87,2.236 2.377,4.136 4.523,5.698 2.418,1.76 5.667,2.906 9.747,3.434 10.979,1.165 19.412,3.891 25.297,8.177 2.219,1.615 4.113,3.548 5.68,5.796 0.404,0.599 0.842,1.071 1.316,1.416 1.371,0.999 3.007,1.188 4.909,0.569 1.9,-0.619 3.841,-1.79 5.822,-3.515 1.981,-1.725 3.788,-3.709 5.423,-5.954 1.651,-2.268 2.999,-4.617 4.042,-7.044 1.042,-2.427 1.577,-4.641 1.604,-6.644 0.028,-2.002 -0.644,-3.504 -2.015,-4.502 -0.5,-0.363 -1.096,-0.645 -1.789,-0.844 -2.622,-0.802 -5.042,-2.012 -7.261,-3.628 -2.27,-1.653 -4.348,-3.632 -6.233,-5.942 -1.888,-2.308 -3.604,-4.798 -5.15,-7.47 -1.547,-2.67 -2.926,-5.402 -4.137,-8.192 -1.749,-3.677 -3.833,-6.396 -6.25,-8.157 -2.17,-1.58 -4.449,-2.447 -6.834,-2.601 -2.387,-0.155 -4.682,0.31 -6.884,1.397 -2.203,1.086 -4.076,2.689 -5.62,4.808"
             style="fill:#000000;fill-opacity:1;fill-rule:nonzero;stroke:none"
             id="path112" />
        </g>
        <g
           id="g114"
           transform="translate(820.5,478.9409)">
          <path
             d="m 0,0 c -0.873,2.01 -1.462,4.1 -1.766,6.271 -0.304,2.172 -0.257,4.269 0.142,6.292 0.399,2.023 1.23,3.863 2.494,5.522 1.264,1.659 3.014,2.974 5.249,3.945 2.488,1.081 5.627,1.637 9.414,1.669 l 2.693,-0.042 c 2.567,-0.029 5.189,-0.007 7.867,0.062 2.677,0.071 5.31,0.298 7.9,0.683 2.59,0.386 4.989,1.058 7.195,2.016 3.396,1.475 6.02,3.64 7.873,6.498 1.142,1.705 2.222,2.78 3.241,3.222 0.933,0.406 1.791,0.408 2.57,0.007 1.494,-0.73 2.757,-2.283 3.789,-4.659 L 66.386,13.704 C 67.492,11.158 65.687,8.189 60.974,4.796 60.687,4.604 60.401,4.446 60.119,4.323 58.987,3.832 57.904,3.866 56.871,4.426 c -1.033,0.559 -1.76,1.321 -2.177,2.282 -0.283,0.651 -0.37,1.336 -0.262,2.056 0.107,0.72 0.467,1.381 1.081,1.983 0.773,0.774 1.142,1.783 1.106,3.028 -0.037,1.246 -0.362,2.576 -0.976,3.99 -0.799,1.839 -2.217,2.315 -4.254,1.43 -1.359,-0.589 -2.58,-1.549 -3.668,-2.879 -1.087,-1.329 -1.502,-2.291 -1.243,-2.885 0.424,-0.825 1.273,-2.003 2.544,-3.537 C 49.23,9.649 49.436,9.368 49.641,9.053 49.935,8.375 49.629,7.586 48.726,6.688 47.82,5.791 46.773,5.084 45.586,4.567 44.651,4.163 43.763,3.962 42.921,3.965 42.079,3.97 41.51,4.312 41.215,4.991 41.031,5.415 40.896,5.86 40.811,6.328 40.725,6.795 40.603,7.213 40.442,7.581 39.607,9.505 38.312,10.085 36.559,9.323 34.889,8.598 33.137,6.979 31.303,4.468 30.096,2.833 28.997,1.297 28.008,-0.141 c -1.565,-2.361 -3.116,-4.44 -4.656,-6.235 -1.541,-1.796 -3.457,-3.192 -5.749,-4.187 -3.666,-1.392 -7.094,-0.954 -10.28,1.31 C 4.136,-6.987 1.695,-3.904 0,0"
             style="fill:#000000;fill-opacity:1;fill-rule:nonzero;stroke:none"
             id="path116" />
        </g>
        <g
           id="g118"
           transform="translate(832.4453,442.1001)">
          <path
             d="m 0,0 -0.857,3.886 c -1.223,5.543 -0.994,9.834 0.689,12.874 1.683,3.041 4.647,5.03 8.895,5.967 2.921,0.643 6.368,0.843 10.338,0.599 3.971,-0.246 7.836,-0.333 11.595,-0.262 3.76,0.071 7.296,0.472 10.61,1.203 2.228,0.491 4.329,1.168 6.303,2.03 1.974,0.862 3.784,1.964 5.431,3.307 1.645,1.343 3.041,2.14 4.186,2.392 0.963,0.213 1.761,0.104 2.393,-0.324 1.086,-0.771 1.902,-2.392 2.447,-4.862 L 65.698,10.183 C 66.296,7.472 63.993,4.737 58.79,1.978 58.395,1.765 58.017,1.618 57.655,1.538 56.51,1.285 55.512,1.515 54.66,2.227 c -0.852,0.712 -1.388,1.565 -1.606,2.56 -0.16,0.722 -0.121,1.435 0.12,2.135 0.24,0.701 0.713,1.318 1.416,1.852 1.045,0.705 1.783,1.507 2.217,2.408 0.432,0.902 0.559,1.759 0.381,2.571 -0.294,1.042 -1.042,1.784 -2.246,2.229 -1.204,0.446 -2.454,0.525 -3.749,0.24 -1.205,-0.265 -2.222,-0.877 -3.053,-1.835 -0.832,-0.956 -1.055,-2.309 -0.669,-4.056 0.153,-0.692 0.386,-1.32 0.7,-1.883 l 0.58,-1.341 C 48.924,6.324 48.413,5.524 47.219,4.709 46.025,3.892 44.779,3.341 43.484,3.055 42.582,2.855 41.782,2.83 41.086,2.976 40.391,3.124 39.969,3.528 39.823,4.19 39.737,4.582 39.69,5.007 39.685,5.463 39.679,5.919 39.629,6.359 39.536,6.78 39.177,8.407 38.487,9.526 37.469,10.138 36.448,10.751 35.412,10.939 34.358,10.707 33.304,10.475 32.433,9.841 31.745,8.805 31.058,7.769 30.9,6.407 31.272,4.72 c 0.659,-2.982 2.854,-4.771 6.586,-5.37 0.686,-0.101 1.259,-0.377 1.723,-0.828 0.462,-0.451 0.765,-0.992 0.903,-1.625 0.213,-0.964 0.014,-1.995 -0.596,-3.093 -0.612,-1.098 -1.732,-2.032 -3.362,-2.803 -6.053,-2.629 -11.203,-4.414 -15.451,-5.351 -4.487,-0.99 -8.118,-1.072 -10.89,-0.246 -2.773,0.825 -4.944,2.471 -6.514,4.935 C 2.1,-7.195 0.877,-3.976 0,0"
             style="fill:#000000;fill-opacity:1;fill-rule:nonzero;stroke:none"
             id="path120" />
        </g>
        <g
           id="g122"
           transform="translate(640,674.5)">
          <path
             d="m 0,0 c -151.36,0 -274.5,-123.14 -274.5,-274.5 0,-151.359 123.14,-274.5 274.5,-274.5 151.359,0 274.5,123.141 274.5,274.5 C 274.5,-123.14 151.359,0 0,0 m 0,-564 c -77.328,0 -150.028,30.113 -204.708,84.793 -54.679,54.679 -84.792,127.379 -84.792,204.707 0,77.328 30.113,150.028 84.792,204.708 C -150.028,-15.113 -77.328,15 0,15 c 77.328,0 150.028,-30.113 204.707,-84.792 54.68,-54.68 84.793,-127.38 84.793,-204.708 0,-77.328 -30.113,-150.028 -84.793,-204.707 C 150.028,-533.887 77.328,-564 0,-564"
             style="fill:#000000;fill-opacity:1;fill-rule:nonzero;stroke:none"
             id="path124" />
        </g>
        <g
           id="g126"
           transform="translate(469.1372,257.7207)">
          <path
             d="m 0,0 c 0.69,-0.83 1.611,-1.418 2.763,-1.764 1.15,-0.345 2.421,-0.352 3.81,-0.019 1.386,0.332 2.792,1.092 4.215,2.275 0.569,0.474 1.133,1.026 1.695,1.654 2.615,2.979 4.256,5.541 4.923,7.68 0.666,2.141 0.574,3.722 -0.274,4.74 -1.046,1.256 -2.966,1.525 -5.757,0.804 C 8.581,14.651 5.835,13.167 3.133,10.917 1.496,9.555 0.337,8.188 -0.347,6.815 -1.031,5.443 -1.312,4.166 -1.189,2.982 -1.068,1.801 -0.671,0.806 0,0 m -27.301,-22.311 c -2.763,3.318 -4.312,6.987 -4.646,11.002 -0.335,4.018 0.4,7.991 2.205,11.921 1.805,3.933 4.509,7.397 8.112,10.398 l 1.707,1.421 c 2.18,1.815 4.758,3.612 7.735,5.387 2.977,1.777 6.13,3.328 9.46,4.655 3.33,1.328 6.642,2.219 9.936,2.674 3.294,0.456 6.38,0.315 9.259,-0.418 2.879,-0.734 5.315,-2.298 7.308,-4.692 1.973,-2.371 3.081,-5.001 3.32,-7.892 0.241,-2.892 -0.141,-5.868 -1.143,-8.931 -1.003,-3.063 -2.416,-6.076 -4.242,-9.04 -1.827,-2.967 -3.863,-5.726 -6.111,-8.28 -2.249,-2.555 -4.453,-4.73 -6.609,-6.526 l -1.879,-1.504 c -2.718,-2.182 -5.633,-3.887 -8.745,-5.114 -3.113,-1.228 -6.231,-1.906 -9.352,-2.037 -3.123,-0.132 -6.095,0.364 -8.915,1.487 -2.822,1.122 -5.289,2.953 -7.4,5.489"
             style="fill:#000000;fill-opacity:1;fill-rule:nonzero;stroke:none"
             id="path128" />
        </g>
        <g
           id="g130"
           transform="translate(497.5786,185.0488)">
          <path
             d="m 0,0 c -4.382,3.205 -4.82,9.582 -1.312,19.132 1.469,4.046 3.885,9.387 7.249,16.022 1.355,2.639 2.536,5.063 3.54,7.271 1.003,2.209 1.682,4.061 2.034,5.563 0.351,1.5 0.179,2.505 -0.517,3.015 -0.983,0.642 -2.23,-0.07 -3.741,-2.136 C 5.941,47.074 4.623,44.723 3.298,41.813 1.973,38.904 0.846,36.203 -0.08,33.708 -1.007,31.213 -1.573,29.564 -1.779,28.76 c -1.252,-4.74 -2.87,-8.469 -4.854,-11.182 -1.876,-2.564 -4.028,-4.096 -6.456,-4.593 -2.428,-0.499 -5.061,0.291 -7.899,2.367 -2.366,1.73 -4.01,3.687 -4.933,5.872 -0.924,2.185 -1.184,4.429 -0.78,6.733 0.404,2.303 1.39,4.524 2.956,6.665 1.784,2.441 4.278,4.649 7.481,6.624 6.867,4.111 12.257,8.844 16.173,14.195 2.841,3.885 4.672,7.877 5.492,11.977 0.31,1.417 0.756,2.523 1.34,3.32 1.42,1.941 3.54,2.36 6.361,1.252 1.246,-0.492 2.417,-1.137 3.512,-1.939 l 6.162,-4.507 c 1.17,-0.856 1.842,-2.131 2.017,-3.825 0.264,-2.983 -0.696,-7.536 -2.881,-13.656 -0.984,-2.759 -2.079,-5.667 -3.282,-8.721 -0.725,-1.878 -1.075,-3.284 -1.052,-4.218 0.024,-0.936 0.247,-1.558 0.671,-1.867 0.397,-0.29 0.9,-0.296 1.508,-0.015 0.607,0.281 1.212,0.834 1.813,1.655 0.82,1.122 2.307,4.695 4.462,10.724 1.88,5.235 3.084,8.215 3.613,8.938 0.728,0.995 1.718,1.474 2.972,1.437 1.252,-0.038 2.552,-0.377 3.899,-1.017 1.346,-0.641 2.53,-1.335 3.55,-2.082 5.104,-3.733 6.637,-6.995 4.597,-9.783 C 44.08,42.317 43.143,41.533 41.85,40.758 37.82,38.279 34.367,35.072 31.49,31.139 27.502,25.687 24.754,19.422 23.247,12.347 22.239,7.886 20.861,4.461 19.113,2.071 17.729,0.179 16.2,-1.168 14.525,-1.968 12.851,-2.77 11.141,-3.172 9.399,-3.178 7.655,-3.183 5.971,-2.887 4.344,-2.288 2.718,-1.692 1.27,-0.928 0,0"
             style="fill:#000000;fill-opacity:1;fill-rule:nonzero;stroke:none"
             id="path132" />
        </g>
        <g
           id="g134"
           transform="translate(589.564,147.1572)">
          <path
             d="m 0,0 c -3.443,0.854 -5.727,2.731 -6.85,5.632 -1.125,2.901 -1.192,6.343 -0.204,10.324 0.594,2.394 1.533,4.871 2.82,7.429 1.285,2.556 2.167,4.792 2.641,6.709 0.595,2.394 0.697,4.285 0.31,5.667 -0.388,1.384 -0.986,2.176 -1.794,2.377 -0.809,0.2 -1.708,-0.221 -2.697,-1.262 -0.99,-1.042 -1.781,-2.761 -2.375,-5.155 -0.475,-1.917 -0.743,-4.305 -0.8,-7.167 -0.059,-2.863 -0.385,-5.491 -0.979,-7.886 -0.987,-3.981 -2.656,-6.991 -5.006,-9.031 -2.348,-2.039 -5.245,-2.632 -8.687,-1.777 -3.144,0.78 -5.525,2.004 -7.144,3.678 -1.62,1.673 -2.624,3.614 -3.013,5.824 -0.389,2.21 -0.294,4.484 0.285,6.818 0.201,0.808 0.599,1.711 1.197,2.707 0.491,0.832 1.031,1.889 1.621,3.174 0.588,1.283 1.131,2.928 1.629,4.934 0.787,3.173 1.082,6.795 0.883,10.864 -0.198,4.07 -0.652,7.877 -1.361,11.421 -1.042,5.153 -1.21,9.151 -0.505,11.995 0.385,1.557 1.094,2.843 2.125,3.859 1.03,1.015 2.493,1.661 4.389,1.938 1.896,0.277 4.327,0.048 7.291,-0.688 1.407,-0.349 2.688,-0.819 3.845,-1.406 1.157,-0.59 2.042,-1.286 2.652,-2.088 0.612,-0.804 0.788,-1.73 0.528,-2.778 -0.245,-0.987 -0.908,-2.508 -1.989,-4.558 -1.649,-3.311 -2.657,-5.714 -3.029,-7.21 -0.824,-3.323 -1.23,-6.338 -1.218,-9.042 0.013,-2.703 0.438,-4.16 1.277,-4.368 0.449,-0.113 1.058,0.229 1.827,1.024 0.769,0.793 1.604,2.176 2.506,4.145 0.901,1.969 1.776,4.661 2.623,8.074 l 0.501,2.021 c 0.275,1.107 0.496,2.577 0.665,4.411 0.169,1.833 0.379,3.258 0.632,4.277 0.245,0.988 0.87,1.715 1.876,2.179 1.005,0.467 2.2,0.702 3.584,0.708 1.383,0.007 2.75,-0.157 4.096,-0.492 2.365,-0.586 4.263,-1.486 5.695,-2.699 1.431,-1.213 1.95,-2.613 1.556,-4.199 C 10.979,58.676 10.447,57.172 9.807,55.869 9.27,54.73 8.856,53.577 8.567,52.411 L 8.066,50.39 C 7.205,46.916 6.7,44.086 6.556,41.896 6.41,39.708 6.483,38.085 6.777,37.027 c 0.293,-1.057 0.65,-1.639 1.07,-1.743 0.778,-0.193 1.825,0.986 3.141,3.535 1.315,2.55 2.397,5.532 3.243,8.945 0.35,1.407 0.599,3.886 0.75,7.441 0.055,2.274 0.203,3.89 0.44,4.848 0.26,1.048 0.863,1.78 1.808,2.198 0.946,0.415 2.073,0.606 3.383,0.567 1.308,-0.04 2.622,-0.221 3.94,-0.548 7.873,-1.954 11.146,-5.61 9.816,-10.969 -0.72,-2.904 -2.738,-6.36 -6.052,-10.368 -2.374,-2.909 -4.581,-6.103 -6.62,-9.584 -2.04,-3.483 -3.461,-6.841 -4.263,-10.074 -0.483,-1.946 -0.766,-3.6 -0.849,-4.963 C 16.5,14.951 16.482,13.788 16.528,12.823 16.635,11.716 16.577,10.713 16.354,9.814 15.775,7.48 14.804,5.425 13.442,3.649 12.08,1.874 10.285,0.625 8.058,-0.092 5.829,-0.811 3.144,-0.78 0,0"
             style="fill:#000000;fill-opacity:1;fill-rule:nonzero;stroke:none"
             id="path136" />
        </g>
        <g
           id="g138"
           transform="translate(659.8076,142.8525)">
          <path
             d="m 0,0 c -3.392,-0.096 -6.199,0.966 -8.422,3.187 -2.223,2.22 -3.39,5.288 -3.5,9.205 -0.078,2.743 0.438,5.782 1.547,9.115 1.624,4.767 2.363,9.71 2.219,14.828 -0.043,1.48 -0.371,2.706 -0.985,3.675 -0.613,0.971 -1.389,1.689 -2.329,2.156 -0.938,0.468 -1.917,0.687 -2.934,0.658 -0.956,-0.026 -1.883,-0.285 -2.779,-0.773 -0.896,-0.488 -1.617,-1.195 -2.161,-2.121 -0.546,-0.925 -0.798,-2.067 -0.76,-3.423 0.211,-5.272 1.291,-10.209 3.244,-14.813 1.297,-3.297 1.983,-6.316 2.061,-9.06 0.112,-3.947 -0.879,-7.138 -2.969,-9.573 -2.091,-2.436 -4.833,-3.701 -8.225,-3.796 -2.806,-0.08 -5.283,0.497 -7.431,1.732 -2.149,1.235 -3.833,2.947 -5.052,5.135 -1.22,2.186 -1.868,4.668 -1.946,7.442 -0.08,2.837 0.497,5.846 1.734,9.029 1.067,2.623 2.085,5.343 3.055,8.165 0.969,2.818 1.753,5.649 2.352,8.49 0.598,2.841 0.859,5.617 0.782,8.331 -0.091,3.206 -0.778,6.225 -2.062,9.059 -0.623,1.309 -0.948,2.443 -0.976,3.398 -0.04,1.418 0.415,2.519 1.365,3.302 0.95,0.783 2.184,1.35 3.701,1.701 1.517,0.352 3.109,0.552 4.774,0.599 1.819,0.051 3.51,-0.272 5.073,-0.967 1.562,-0.698 2.362,-1.677 2.397,-2.941 -0.04,-1.852 -0.271,-3.479 -0.694,-4.88 -0.164,-0.745 -0.321,-1.522 -0.467,-2.328 -0.147,-0.806 -0.206,-1.703 -0.178,-2.689 0.036,-1.294 0.636,-2.313 1.799,-3.051 1.163,-0.738 2.345,-1.09 3.548,-1.057 1.11,0.032 2.094,0.422 2.951,1.172 0.86,0.748 1.266,1.925 1.22,3.53 -0.031,1.11 -0.337,2.613 -0.915,4.509 -0.506,1.53 -0.828,3.139 -0.969,4.833 -0.037,1.295 0.689,2.349 2.178,3.163 1.488,0.813 3.159,1.246 5.009,1.299 1.695,0.048 3.303,-0.06 4.823,-0.326 1.519,-0.267 2.776,-0.763 3.768,-1.49 0.992,-0.729 1.509,-1.802 1.55,-3.219 C 5.423,60.249 5.178,59.101 4.66,57.759 3.596,55.014 3.105,52.161 3.189,49.2 3.268,46.426 3.726,43.599 4.563,40.724 5.4,37.846 6.431,34.997 7.652,32.178 8.873,29.357 10.107,26.638 11.355,24.021 12.77,20.913 13.518,17.94 13.598,15.104 13.677,12.329 13.169,9.815 12.075,7.563 10.982,5.31 9.405,3.506 7.345,2.152 5.285,0.798 2.837,0.08 0,0"
             style="fill:#000000;fill-opacity:1;fill-rule:nonzero;stroke:none"
             id="path140" />
        </g>
        <g
           id="g142"
           transform="translate(707.1455,151.3379)">
          <path
             d="m 0,0 -3.843,-1.034 c -5.48,-1.476 -9.778,-1.443 -12.891,0.098 -3.116,1.541 -5.238,4.413 -6.369,8.612 -0.777,2.888 -1.135,6.322 -1.072,10.302 0.063,3.977 -0.027,7.842 -0.27,11.593 -0.243,3.752 -0.807,7.266 -1.689,10.542 -0.593,2.204 -1.366,4.273 -2.317,6.204 -0.951,1.932 -2.136,3.691 -3.552,5.274 -1.417,1.583 -2.277,2.94 -2.582,4.072 -0.257,0.953 -0.185,1.755 0.215,2.406 0.721,1.119 2.302,2.009 4.745,2.666 l 16.44,4.427 c 2.681,0.722 5.519,-1.453 8.513,-6.524 0.232,-0.386 0.397,-0.756 0.492,-1.114 0.305,-1.131 0.121,-2.14 -0.551,-3.024 -0.673,-0.883 -1.5,-1.457 -2.484,-1.722 -0.715,-0.192 -1.428,-0.185 -2.139,0.024 -0.71,0.207 -1.348,0.649 -1.915,1.328 -0.751,1.012 -1.586,1.714 -2.506,2.104 -0.92,0.392 -1.782,0.479 -2.586,0.263 -1.028,-0.341 -1.735,-1.123 -2.124,-2.345 -0.39,-1.223 -0.412,-2.474 -0.068,-3.756 0.322,-1.191 0.979,-2.18 1.973,-2.966 0.994,-0.787 2.355,-0.947 4.084,-0.482 0.684,0.184 1.3,0.447 1.849,0.785 l 1.312,0.641 c 0.774,0.209 1.597,-0.265 2.467,-1.419 0.869,-1.155 1.477,-2.374 1.822,-3.655 0.24,-0.894 0.304,-1.692 0.19,-2.393 -0.116,-0.702 -0.501,-1.14 -1.156,-1.318 -0.386,-0.104 -0.808,-0.169 -1.265,-0.195 -0.455,-0.028 -0.892,-0.098 -1.309,-0.21 -1.608,-0.433 -2.695,-1.173 -3.26,-2.219 -0.564,-1.047 -0.707,-2.09 -0.425,-3.134 0.281,-1.043 0.953,-1.883 2.02,-2.522 1.066,-0.639 2.434,-0.734 4.102,-0.285 2.949,0.793 4.636,3.068 5.063,6.825 0.068,0.689 0.318,1.276 0.747,1.759 0.429,0.482 0.956,0.809 1.583,0.976 0.952,0.258 1.99,0.105 3.116,-0.453 1.125,-0.561 2.11,-1.637 2.954,-3.23 2.905,-5.925 4.924,-10.99 6.054,-15.188 1.195,-4.44 1.444,-8.063 0.746,-10.869 C 13.416,8.037 11.872,5.792 9.482,4.111 7.092,2.429 3.932,1.059 0,0"
             style="fill:#000000;fill-opacity:1;fill-rule:nonzero;stroke:none"
             id="path144" />
        </g>
        <g
           id="g146"
           transform="translate(755.2275,169.6709)">
          <path
             d="m 0,0 -3.563,-1.771 c -5.083,-2.524 -9.304,-3.336 -12.66,-2.439 -3.357,0.898 -6.003,3.297 -7.937,7.191 -1.331,2.68 -2.357,5.975 -3.077,9.889 -0.722,3.912 -1.57,7.684 -2.546,11.316 -0.977,3.629 -2.22,6.964 -3.729,10.003 -1.015,2.044 -2.179,3.919 -3.493,5.627 -1.311,1.707 -2.819,3.198 -4.518,4.472 -1.702,1.274 -2.812,2.435 -3.333,3.484 -0.439,0.884 -0.527,1.684 -0.263,2.401 0.486,1.24 1.861,2.424 4.127,3.549 l 15.25,7.574 c 2.486,1.234 5.696,-0.34 9.629,-4.723 0.302,-0.333 0.537,-0.664 0.701,-0.995 0.521,-1.051 0.54,-2.074 0.054,-3.072 -0.486,-0.999 -1.184,-1.726 -2.096,-2.178 -0.663,-0.33 -1.363,-0.463 -2.101,-0.398 -0.738,0.064 -1.45,0.372 -2.138,0.926 -0.937,0.844 -1.894,1.367 -2.873,1.571 -0.979,0.202 -1.841,0.118 -2.587,-0.252 -0.94,-0.537 -1.48,-1.442 -1.621,-2.718 -0.142,-1.275 0.083,-2.508 0.672,-3.694 0.549,-1.107 1.388,-1.947 2.518,-2.522 1.13,-0.575 2.496,-0.466 4.098,0.33 0.635,0.317 1.187,0.694 1.658,1.134 l 1.162,0.888 c 0.717,0.356 1.617,0.053 2.697,-0.908 1.08,-0.961 1.916,-2.037 2.506,-3.224 0.411,-0.829 0.63,-1.599 0.656,-2.31 0.026,-0.711 -0.266,-1.216 -0.873,-1.517 -0.359,-0.18 -0.76,-0.327 -1.202,-0.442 -0.441,-0.117 -0.855,-0.27 -1.242,-0.463 -1.492,-0.741 -2.412,-1.68 -2.76,-2.817 -0.347,-1.138 -0.281,-2.189 0.198,-3.155 0.481,-0.967 1.307,-1.659 2.478,-2.076 1.171,-0.418 2.53,-0.243 4.078,0.527 2.734,1.358 3.942,3.921 3.621,7.687 -0.067,0.691 0.062,1.313 0.388,1.872 0.325,0.557 0.778,0.981 1.358,1.269 0.884,0.439 1.933,0.494 3.146,0.167 1.213,-0.327 2.39,-1.189 3.531,-2.585 4.014,-5.24 6.989,-9.806 8.923,-13.701 2.045,-4.116 3.001,-7.62 2.869,-10.51 C 11.574,10.518 10.502,8.013 8.489,5.895 6.477,3.774 3.646,1.811 0,0"
             style="fill:#000000;fill-opacity:1;fill-rule:nonzero;stroke:none"
             id="path148" />
        </g>
        <g
           id="g150"
           transform="translate(799.165,197.4551)">
          <path
             d="m 0,0 c -5.295,-4.147 -10.09,-6.403 -14.385,-6.771 -4.297,-0.368 -7.975,1.403 -11.038,5.314 -2.206,2.816 -4.084,6.89 -5.633,12.219 -0.591,2.006 -1.298,4.047 -2.123,6.125 -0.824,2.077 -2.138,4.269 -3.946,6.577 -2.872,3.666 -7.128,7.425 -12.768,11.275 -0.752,0.509 -1.345,1.041 -1.783,1.6 -0.97,1.239 -1.297,2.519 -0.983,3.845 0.315,1.324 0.956,2.569 1.921,3.738 0.967,1.166 1.96,2.15 2.979,2.949 2.259,1.769 4.183,2.913 5.773,3.434 1.591,0.52 2.976,0.029 4.155,-1.477 0.741,-0.947 1.425,-2.371 2.051,-4.269 1.445,-4.198 3.452,-7.934 6.019,-11.213 1.275,-1.627 2.663,-3.126 4.167,-4.494 1.61,-1.406 3.165,-2.117 4.668,-2.133 1.503,-0.02 2.813,0.409 3.93,1.284 1.093,0.856 1.898,1.977 2.42,3.365 0.519,1.386 0.601,2.783 0.245,4.189 -0.157,0.7 -0.126,1.361 0.093,1.982 0.218,0.621 0.582,1.132 1.092,1.532 0.777,0.609 1.781,0.866 3.011,0.771 1.229,-0.095 2.495,-0.748 3.798,-1.961 3.539,-3.42 6.441,-6.572 8.704,-9.463 C 5.639,24.24 7.646,20.514 8.391,17.238 9.135,13.962 8.767,10.93 7.285,8.145 5.804,5.357 3.375,2.644 0,0"
             style="fill:#000000;fill-opacity:1;fill-rule:nonzero;stroke:none"
             id="path152" />
        </g>
        <g
           id="g154"
           transform="translate(837.8477,235.041)">
          <path
             d="m 0,0 c -2.96,-3.516 -5.89,-5.919 -8.789,-7.207 -2.899,-1.289 -5.796,-1.713 -8.69,-1.273 -2.895,0.441 -5.821,1.552 -8.776,3.334 -2.955,1.783 -5.978,3.974 -9.07,6.577 l -5.457,4.654 c -1.072,1.024 -1.557,2.257 -1.45,3.7 0.105,1.443 0.565,2.649 1.38,3.616 0.537,0.637 1.166,1.075 1.89,1.312 0.724,0.237 1.486,0.16 2.285,-0.231 1.576,-0.762 3.244,-0.804 5.003,-0.128 1.759,0.675 3.105,1.569 4.039,2.678 0.575,0.685 0.908,1.343 0.996,1.974 0.087,0.632 -0.128,1.166 -0.647,1.603 -0.637,0.537 -1.385,0.762 -2.241,0.678 -0.859,-0.085 -2.003,-0.332 -3.435,-0.739 l -1.156,-0.296 c -1.198,-0.322 -2.363,-0.652 -3.494,-0.99 -1.772,-0.526 -3.475,-0.955 -5.11,-1.293 -1.634,-0.338 -3.212,-0.391 -4.731,-0.16 -1.521,0.229 -2.987,0.942 -4.403,2.133 -2.415,2.114 -3.85,4.48 -4.305,7.101 -0.455,2.621 -0.21,5.247 0.735,7.879 0.946,2.631 2.273,4.961 3.981,6.991 1.549,1.84 3.371,3.369 5.466,4.592 2.095,1.218 4.298,1.824 6.609,1.814 2.31,-0.009 4.558,-0.895 6.746,-2.654 1.345,-1.133 2.016,-2.311 2.012,-3.538 -0.004,-1.227 -0.394,-2.3 -1.168,-3.221 -0.875,-1.038 -2.055,-1.758 -3.542,-2.159 -1.488,-0.401 -2.949,-0.259 -4.388,0.428 -1.623,0.802 -3.047,1.074 -4.273,0.815 -1.225,-0.26 -2.186,-0.801 -2.881,-1.628 -0.755,-0.895 -1.145,-1.959 -1.171,-3.186 -0.027,-1.228 0.421,-2.23 1.342,-3.004 1.452,-1.103 3.225,-1.425 5.321,-0.971 2.096,0.452 4.453,1.23 7.072,2.331 1.904,0.778 3.901,1.496 5.988,2.156 2.089,0.662 4.231,1.097 6.423,1.308 2.194,0.21 4.421,0.008 6.685,-0.607 2.265,-0.617 4.517,-1.868 6.76,-3.754 l 0.743,-0.626 c 1.511,-1.272 3.077,-2.702 4.703,-4.291 1.625,-1.591 3.106,-3.352 4.443,-5.284 C 2.782,18.502 3.725,16.46 4.271,14.307 4.817,12.154 4.792,9.886 4.199,7.503 3.604,5.12 2.205,2.62 0,0"
             style="fill:#000000;fill-opacity:1;fill-rule:nonzero;stroke:none"
             id="path156" />
        </g>
        <g
           id="g158"
           transform="translate(634.6766,496.8333)">
          <path
             d="m 0,0 c 0,-2.123 -1.721,-3.843 -3.843,-3.843 -2.123,0 -3.844,1.72 -3.844,3.843 0,2.123 1.721,3.843 3.844,3.843 C -1.721,3.843 0,2.123 0,0"
             style="fill:#000000;fill-opacity:1;fill-rule:nonzero;stroke:none"
             id="path160" />
        </g>
        <g
           id="g162"
           transform="translate(664.6766,496.8333)">
          <path
             d="m 0,0 c 0,-2.123 -1.721,-3.843 -3.843,-3.843 -2.123,0 -3.844,1.72 -3.844,3.843 0,2.123 1.721,3.843 3.844,3.843 C -1.721,3.843 0,2.123 0,0"
             style="fill:#000000;fill-opacity:1;fill-rule:nonzero;stroke:none"
             id="path164" />
        </g>
      </g>
    </g>
  </g>
</svg>
